<svg xmlns="http://www.w3.org/2000/svg" xmlns:xlink="http://www.w3.org/1999/xlink" width="1080" zoomAndPan="magnify" viewBox="0 0 810 809.999993" height="1080" preserveAspectRatio="xMidYMid meet" version="1.0"><defs><clipPath id="70ee936215"><path d="M 131 90.4375 L 679 90.4375 L 679 719.6875 L 131 719.6875 Z M 131 90.4375 " clip-rule="nonzero"/></clipPath></defs><g clip-path="url(#70ee936215)"><path fill="#000000" d="M 580.160156 654.070312 L 229.960938 654.070312 C 236.597656 680.980469 257.976562 699.78125 284.148438 699.78125 L 525.972656 699.78125 C 552.511719 699.78125 573.894531 680.980469 580.160156 654.070312 Z M 227.75 634.164062 L 582.738281 634.164062 L 617.390625 213.925781 L 193.097656 213.925781 Z M 601.539062 644.484375 C 601.539062 644.855469 601.539062 645.222656 601.539062 645.222656 C 597.855469 687.613281 565.414062 719.6875 525.972656 719.6875 L 284.148438 719.6875 C 244.707031 719.6875 212.636719 687.613281 208.949219 645.222656 L 208.949219 644.855469 L 173.191406 213.925781 L 169.875 213.925781 C 148.496094 213.925781 131.167969 196.601562 131.167969 175.589844 C 131.167969 154.207031 148.496094 136.882812 169.875 136.882812 L 314.746094 136.882812 L 314.746094 133.195312 C 314.746094 109.605469 333.914062 90.4375 357.140625 90.4375 L 452.984375 90.4375 C 476.574219 90.4375 495.742188 109.605469 495.742188 133.195312 L 495.742188 136.882812 L 640.613281 136.882812 C 661.625 136.882812 678.953125 154.207031 678.953125 175.589844 C 678.953125 196.601562 661.625 213.925781 640.613281 213.925781 L 637.296875 213.925781 Z M 182.039062 194.390625 C 182.039062 194.390625 182.410156 194.390625 182.777344 194.390625 L 640.613281 194.390625 C 650.9375 194.390625 659.414062 185.910156 659.414062 175.589844 C 659.414062 165.265625 650.9375 156.789062 640.613281 156.789062 L 169.875 156.789062 C 159.554688 156.789062 151.074219 165.265625 151.074219 175.589844 C 151.074219 185.910156 159.554688 194.390625 169.875 194.390625 Z M 334.285156 136.882812 L 476.207031 136.882812 L 476.207031 133.195312 C 476.207031 120.292969 465.882812 109.972656 452.984375 109.972656 L 357.140625 109.972656 C 344.605469 109.972656 334.285156 120.292969 334.285156 133.195312 Z M 405.0625 589.191406 C 389.210938 589.191406 376.308594 576.289062 376.308594 560.4375 L 376.308594 292.8125 C 376.308594 276.960938 389.210938 264.058594 405.0625 264.058594 C 420.910156 264.058594 433.8125 276.960938 433.8125 292.8125 L 433.8125 560.4375 C 433.8125 576.289062 420.910156 589.191406 405.0625 589.191406 Z M 405.0625 283.597656 C 400.269531 283.597656 396.214844 287.652344 396.214844 292.8125 L 396.214844 560.4375 C 396.214844 565.230469 400.269531 569.285156 405.0625 569.285156 C 410.222656 569.285156 414.277344 565.230469 414.277344 560.4375 L 414.277344 292.8125 C 414.277344 287.652344 410.222656 283.597656 405.0625 283.597656 Z M 510.488281 588.453125 C 509.75 588.453125 509.015625 588.453125 507.90625 588.085938 C 500.167969 587.714844 493.53125 584.03125 488.738281 578.132812 C 483.949219 571.867188 481.734375 564.492188 482.472656 556.75 L 515.648438 290.601562 C 517.859375 275.117188 531.867188 263.691406 547.71875 264.796875 C 555.460938 265.535156 562.097656 269.222656 566.890625 275.117188 C 572.050781 281.015625 573.894531 288.757812 573.15625 296.128906 L 539.980469 562.648438 C 538.136719 577.394531 525.234375 588.453125 510.488281 588.453125 Z M 545.140625 284.335938 C 540.347656 284.335938 535.925781 288.390625 535.1875 293.183594 L 502.011719 559.332031 C 501.640625 561.542969 502.378906 563.753906 503.851562 565.597656 C 505.328125 567.441406 507.539062 568.546875 509.75 568.546875 C 514.542969 569.285156 519.703125 565.230469 520.441406 560.070312 L 553.617188 293.917969 C 553.988281 291.707031 553.25 289.125 551.773438 287.652344 C 550.300781 285.808594 548.457031 284.703125 545.878906 284.335938 C 545.507812 284.335938 545.507812 284.335938 545.140625 284.335938 Z M 300 588.453125 C 284.886719 588.453125 272.355469 577.394531 270.511719 562.648438 L 237.335938 296.128906 C 236.226562 288.757812 238.441406 281.015625 243.234375 275.117188 C 248.023438 269.222656 255.027344 265.535156 262.769531 264.796875 C 278.621094 263.691406 292.628906 275.117188 294.472656 290.601562 L 327.648438 556.75 C 328.753906 564.492188 326.542969 571.867188 321.75 578.132812 C 316.957031 584.03125 309.953125 587.714844 302.214844 588.085938 C 301.476562 588.453125 300.738281 588.453125 300 588.453125 Z M 265.351562 284.335938 C 264.980469 284.335938 264.613281 284.335938 264.246094 284.335938 C 262.03125 284.703125 260.1875 285.808594 258.714844 287.652344 C 257.242188 289.125 256.503906 291.707031 256.871094 293.917969 L 290.046875 560.070312 C 290.785156 565.230469 295.578125 569.285156 300.738281 568.546875 C 302.949219 568.546875 305.164062 567.441406 306.636719 565.597656 C 307.742188 563.753906 308.480469 561.542969 308.109375 559.332031 L 274.933594 293.183594 C 274.566406 288.390625 270.140625 284.335938 265.351562 284.335938 Z M 265.351562 284.335938 " fill-opacity="1" fill-rule="evenodd"/></g></svg>