<svg xmlns="http://www.w3.org/2000/svg" xmlns:xlink="http://www.w3.org/1999/xlink" width="1080" zoomAndPan="magnify" viewBox="0 0 810 809.999993" height="1080" preserveAspectRatio="xMidYMid meet" version="1.0"><path fill="#000000" d="M 806.554688 756.433594 C 806.554688 772.542969 793.480469 785.621094 777.371094 785.621094 L 30.292969 785.621094 C 14.1875 785.621094 1.113281 772.542969 1.113281 756.433594 C 1.113281 740.324219 14.1875 727.25 30.292969 727.25 L 777.371094 727.25 C 793.480469 727.25 806.554688 740.324219 806.554688 756.433594 Z M 94.03125 677.75 L 94.03125 537.65625 C 94.03125 529.953125 97.066406 522.480469 102.667969 517.109375 L 577.292969 42.199219 C 597.136719 22.355469 631.691406 22.355469 651.535156 42.199219 L 758.695312 149.371094 C 768.5 159.175781 774.101562 172.484375 774.101562 186.496094 C 774.101562 200.503906 768.734375 213.8125 758.695312 223.617188 L 283.832031 698.296875 C 278.464844 703.667969 270.992188 706.933594 263.289062 706.933594 L 123.210938 706.933594 C 107.105469 706.933594 94.03125 693.859375 94.03125 677.75 Z M 573.09375 128.824219 L 671.847656 227.589844 L 713.167969 186.261719 L 614.414062 87.496094 Z M 152.394531 648.5625 L 251.148438 648.5625 L 630.757812 268.914062 L 532.003906 170.148438 L 152.394531 549.566406 Z M 152.394531 648.5625 " fill-opacity="1" fill-rule="nonzero"/></svg>