<svg xmlns="http://www.w3.org/2000/svg" xmlns:xlink="http://www.w3.org/1999/xlink" width="1080" zoomAndPan="magnify" viewBox="0 0 810 809.999993" height="1080" preserveAspectRatio="xMidYMid meet" version="1.0"><defs><clipPath id="8376111597"><path d="M 353.519531 122.171875 L 456.480469 122.171875 L 456.480469 687.828125 L 353.519531 687.828125 Z M 353.519531 122.171875 " clip-rule="nonzero"/></clipPath><clipPath id="4589dbf9b3"><path d="M 0.519531 0.171875 L 103.480469 0.171875 L 103.480469 565.828125 L 0.519531 565.828125 Z M 0.519531 0.171875 " clip-rule="nonzero"/></clipPath><clipPath id="8fce25b7b9"><rect x="0" width="104" y="0" height="566"/></clipPath><clipPath id="d85291f907"><path d="M 122.167969 353.515625 L 687.824219 353.515625 L 687.824219 456.472656 L 122.167969 456.472656 Z M 122.167969 353.515625 " clip-rule="nonzero"/></clipPath><clipPath id="ecafd639ab"><path d="M 0.167969 0.515625 L 565.824219 0.515625 L 565.824219 103.472656 L 0.167969 103.472656 Z M 0.167969 0.515625 " clip-rule="nonzero"/></clipPath><clipPath id="28f27d9e68"><rect x="0" width="566" y="0" height="104"/></clipPath></defs><g clip-path="url(#8376111597)"><g transform="matrix(1, 0, 0, 1, 353, 122)"><g clip-path="url(#8fce25b7b9)"><g clip-path="url(#4589dbf9b3)"><path fill="#000000" d="M 0.519531 0.171875 L 103.480469 0.171875 L 103.480469 565.640625 L 0.519531 565.640625 Z M 0.519531 0.171875 " fill-opacity="1" fill-rule="nonzero"/></g></g></g></g><g clip-path="url(#d85291f907)"><g transform="matrix(1, 0, 0, 1, 122, 353)"><g clip-path="url(#28f27d9e68)"><g clip-path="url(#ecafd639ab)"><path fill="#000000" d="M 0.167969 103.472656 L 0.167969 0.515625 L 565.636719 0.515625 L 565.636719 103.472656 Z M 0.167969 103.472656 " fill-opacity="1" fill-rule="nonzero"/></g></g></g></g></svg>