<svg xmlns="http://www.w3.org/2000/svg" xmlns:xlink="http://www.w3.org/1999/xlink" width="1080" zoomAndPan="magnify" viewBox="0 0 810 809.999993" height="1080" preserveAspectRatio="xMidYMid meet" version="1.0"><defs><clipPath id="d65b396ddb"><path d="M 0 170.835938 L 810 170.835938 L 810 638.835938 L 0 638.835938 Z M 0 170.835938 " clip-rule="nonzero"/></clipPath></defs><g clip-path="url(#d65b396ddb)"><path fill="#000000" d="M 490.148438 638.835938 L 319.851562 638.835938 C 319.15625 638.835938 318.457031 638.800781 317.765625 638.734375 C 317.070312 638.664062 316.382812 638.5625 315.699219 638.425781 C 315.015625 638.292969 314.339844 638.121094 313.671875 637.921875 C 313.003906 637.71875 312.347656 637.484375 311.707031 637.21875 C 311.0625 636.949219 310.433594 636.652344 309.816406 636.324219 C 309.203125 635.996094 308.605469 635.636719 308.023438 635.25 C 307.445312 634.863281 306.886719 634.449219 306.347656 634.007812 C 305.808594 633.566406 305.292969 633.097656 304.800781 632.605469 C 304.304688 632.113281 303.839844 631.597656 303.394531 631.058594 C 302.953125 630.519531 302.539062 629.960938 302.152344 629.382812 C 301.765625 628.804688 301.40625 628.207031 301.078125 627.589844 C 300.75 626.976562 300.453125 626.347656 300.183594 625.703125 C 299.917969 625.0625 299.683594 624.40625 299.480469 623.738281 C 299.277344 623.070312 299.109375 622.398438 298.972656 621.714844 C 298.835938 621.03125 298.734375 620.34375 298.667969 619.648438 C 298.597656 618.957031 298.5625 618.261719 298.5625 617.5625 C 298.5625 616.867188 298.597656 616.171875 298.667969 615.476562 C 298.734375 614.785156 298.835938 614.097656 298.972656 613.414062 C 299.109375 612.730469 299.277344 612.054688 299.480469 611.386719 C 299.683594 610.722656 299.917969 610.066406 300.183594 609.421875 C 300.453125 608.777344 300.75 608.148438 301.078125 607.535156 C 301.40625 606.921875 301.765625 606.324219 302.152344 605.746094 C 302.539062 605.164062 302.953125 604.605469 303.394531 604.066406 C 303.839844 603.53125 304.304688 603.015625 304.800781 602.523438 C 305.292969 602.027344 305.808594 601.5625 306.347656 601.121094 C 306.886719 600.675781 307.445312 600.261719 308.023438 599.875 C 308.605469 599.488281 309.203125 599.132812 309.816406 598.804688 C 310.433594 598.472656 311.0625 598.175781 311.707031 597.910156 C 312.347656 597.644531 313.003906 597.410156 313.671875 597.207031 C 314.339844 597.003906 315.015625 596.835938 315.699219 596.699219 C 316.382812 596.5625 317.070312 596.460938 317.765625 596.394531 C 318.457031 596.324219 319.15625 596.289062 319.851562 596.289062 L 490.148438 596.289062 C 490.84375 596.289062 491.542969 596.324219 492.234375 596.394531 C 492.929688 596.460938 493.617188 596.5625 494.300781 596.699219 C 494.984375 596.835938 495.660156 597.003906 496.328125 597.207031 C 496.996094 597.410156 497.652344 597.644531 498.292969 597.910156 C 498.9375 598.175781 499.566406 598.472656 500.183594 598.804688 C 500.796875 599.132812 501.394531 599.488281 501.976562 599.875 C 502.554688 600.261719 503.113281 600.675781 503.652344 601.121094 C 504.191406 601.5625 504.707031 602.027344 505.199219 602.523438 C 505.695312 603.015625 506.160156 603.53125 506.605469 604.066406 C 507.046875 604.605469 507.460938 605.164062 507.847656 605.746094 C 508.234375 606.324219 508.59375 606.921875 508.921875 607.535156 C 509.25 608.148438 509.546875 608.777344 509.816406 609.421875 C 510.082031 610.066406 510.316406 610.722656 510.519531 611.386719 C 510.722656 612.054688 510.890625 612.730469 511.027344 613.414062 C 511.164062 614.097656 511.265625 614.785156 511.332031 615.476562 C 511.402344 616.171875 511.433594 616.867188 511.433594 617.5625 C 511.433594 618.261719 511.402344 618.957031 511.332031 619.648438 C 511.265625 620.34375 511.164062 621.03125 511.027344 621.714844 C 510.890625 622.398438 510.722656 623.070312 510.519531 623.738281 C 510.316406 624.40625 510.082031 625.0625 509.816406 625.703125 C 509.546875 626.347656 509.25 626.976562 508.921875 627.589844 C 508.59375 628.207031 508.234375 628.804688 507.847656 629.382812 C 507.460938 629.960938 507.046875 630.519531 506.605469 631.058594 C 506.160156 631.597656 505.695312 632.113281 505.199219 632.605469 C 504.707031 633.097656 504.191406 633.566406 503.652344 634.007812 C 503.113281 634.449219 502.554688 634.863281 501.976562 635.25 C 501.394531 635.636719 500.796875 635.996094 500.183594 636.324219 C 499.566406 636.652344 498.9375 636.949219 498.292969 637.21875 C 497.652344 637.484375 496.996094 637.71875 496.328125 637.921875 C 495.660156 638.121094 494.984375 638.292969 494.300781 638.425781 C 493.617188 638.5625 492.929688 638.664062 492.234375 638.734375 C 491.542969 638.800781 490.84375 638.835938 490.148438 638.835938 Z M 660.445312 426.109375 L 149.554688 426.109375 C 148.859375 426.109375 148.160156 426.074219 147.46875 426.007812 C 146.773438 425.9375 146.085938 425.835938 145.402344 425.699219 C 144.71875 425.5625 144.042969 425.394531 143.375 425.191406 C 142.707031 424.992188 142.050781 424.757812 141.410156 424.488281 C 140.765625 424.222656 140.136719 423.925781 139.519531 423.597656 C 138.90625 423.269531 138.308594 422.910156 137.726562 422.523438 C 137.148438 422.136719 136.589844 421.722656 136.050781 421.28125 C 135.511719 420.839844 134.996094 420.371094 134.503906 419.878906 C 134.007812 419.386719 133.542969 418.871094 133.097656 418.332031 C 132.65625 417.792969 132.242188 417.234375 131.855469 416.65625 C 131.46875 416.074219 131.109375 415.480469 130.78125 414.863281 C 130.453125 414.25 130.15625 413.621094 129.886719 412.976562 C 129.621094 412.332031 129.386719 411.679688 129.183594 411.011719 C 128.980469 410.34375 128.8125 409.667969 128.675781 408.988281 C 128.539062 408.304688 128.4375 407.613281 128.371094 406.921875 C 128.300781 406.226562 128.265625 405.53125 128.265625 404.835938 C 128.265625 404.140625 128.300781 403.445312 128.371094 402.75 C 128.4375 402.058594 128.539062 401.371094 128.675781 400.6875 C 128.8125 400.003906 128.980469 399.328125 129.183594 398.660156 C 129.386719 397.996094 129.621094 397.339844 129.886719 396.695312 C 130.15625 396.050781 130.453125 395.421875 130.78125 394.808594 C 131.109375 394.195312 131.46875 393.597656 131.855469 393.019531 C 132.242188 392.4375 132.65625 391.878906 133.097656 391.339844 C 133.542969 390.800781 134.007812 390.285156 134.503906 389.792969 C 134.996094 389.300781 135.511719 388.835938 136.050781 388.390625 C 136.589844 387.949219 137.148438 387.535156 137.726562 387.148438 C 138.308594 386.761719 138.90625 386.402344 139.519531 386.074219 C 140.136719 385.746094 140.765625 385.449219 141.410156 385.183594 C 142.050781 384.917969 142.707031 384.683594 143.375 384.480469 C 144.042969 384.277344 144.71875 384.109375 145.402344 383.972656 C 146.085938 383.835938 146.773438 383.734375 147.46875 383.667969 C 148.160156 383.597656 148.859375 383.5625 149.554688 383.5625 L 660.445312 383.5625 C 661.140625 383.5625 661.839844 383.597656 662.53125 383.667969 C 663.226562 383.734375 663.914062 383.835938 664.597656 383.972656 C 665.28125 384.109375 665.957031 384.277344 666.625 384.480469 C 667.292969 384.683594 667.949219 384.917969 668.589844 385.183594 C 669.234375 385.449219 669.863281 385.746094 670.480469 386.074219 C 671.09375 386.402344 671.691406 386.761719 672.273438 387.148438 C 672.851562 387.535156 673.410156 387.949219 673.949219 388.390625 C 674.488281 388.835938 675.003906 389.300781 675.496094 389.792969 C 675.992188 390.285156 676.457031 390.800781 676.902344 391.339844 C 677.34375 391.878906 677.757812 392.4375 678.144531 393.019531 C 678.53125 393.597656 678.890625 394.195312 679.21875 394.808594 C 679.546875 395.421875 679.84375 396.050781 680.113281 396.695312 C 680.378906 397.339844 680.613281 397.996094 680.816406 398.660156 C 681.019531 399.328125 681.1875 400.003906 681.324219 400.6875 C 681.460938 401.371094 681.5625 402.058594 681.628906 402.75 C 681.699219 403.445312 681.730469 404.140625 681.730469 404.835938 C 681.730469 405.53125 681.699219 406.226562 681.628906 406.921875 C 681.5625 407.613281 681.460938 408.304688 681.324219 408.988281 C 681.1875 409.667969 681.019531 410.34375 680.816406 411.011719 C 680.613281 411.679688 680.378906 412.332031 680.113281 412.976562 C 679.84375 413.621094 679.546875 414.25 679.21875 414.863281 C 678.890625 415.480469 678.53125 416.074219 678.144531 416.65625 C 677.757812 417.234375 677.34375 417.792969 676.902344 418.332031 C 676.457031 418.871094 675.992188 419.386719 675.496094 419.878906 C 675.003906 420.371094 674.488281 420.839844 673.949219 421.28125 C 673.410156 421.722656 672.851562 422.136719 672.273438 422.523438 C 671.691406 422.910156 671.09375 423.269531 670.480469 423.597656 C 669.863281 423.925781 669.234375 424.222656 668.589844 424.488281 C 667.949219 424.757812 667.292969 424.992188 666.625 425.191406 C 665.957031 425.394531 665.28125 425.5625 664.597656 425.699219 C 663.914062 425.835938 663.226562 425.9375 662.53125 426.007812 C 661.839844 426.074219 661.140625 426.109375 660.445312 426.109375 Z M 788.167969 213.382812 L 21.832031 213.382812 C 21.136719 213.382812 20.4375 213.347656 19.746094 213.28125 C 19.050781 213.210938 18.363281 213.109375 17.679688 212.972656 C 16.996094 212.835938 16.320312 212.667969 15.652344 212.464844 C 14.984375 212.261719 14.328125 212.027344 13.6875 211.761719 C 13.042969 211.496094 12.414062 211.199219 11.796875 210.871094 C 11.183594 210.542969 10.585938 210.183594 10.003906 209.796875 C 9.425781 209.410156 8.867188 208.996094 8.328125 208.554688 C 7.789062 208.109375 7.273438 207.644531 6.78125 207.152344 C 6.285156 206.660156 5.820312 206.144531 5.375 205.605469 C 4.933594 205.066406 4.519531 204.507812 4.132812 203.925781 C 3.746094 203.347656 3.386719 202.75 3.058594 202.136719 C 2.730469 201.523438 2.433594 200.894531 2.164062 200.25 C 1.898438 199.605469 1.664062 198.949219 1.460938 198.285156 C 1.257812 197.617188 1.089844 196.941406 0.953125 196.257812 C 0.816406 195.574219 0.714844 194.886719 0.648438 194.195312 C 0.578125 193.5 0.546875 192.804688 0.546875 192.109375 C 0.546875 191.414062 0.578125 190.71875 0.648438 190.023438 C 0.714844 189.332031 0.816406 188.640625 0.953125 187.960938 C 1.089844 187.277344 1.257812 186.601562 1.460938 185.933594 C 1.664062 185.265625 1.898438 184.613281 2.164062 183.96875 C 2.433594 183.324219 2.730469 182.695312 3.058594 182.082031 C 3.386719 181.464844 3.746094 180.871094 4.132812 180.289062 C 4.519531 179.710938 4.933594 179.152344 5.375 178.613281 C 5.820312 178.074219 6.285156 177.558594 6.78125 177.066406 C 7.273438 176.574219 7.789062 176.105469 8.328125 175.664062 C 8.867188 175.222656 9.425781 174.808594 10.003906 174.421875 C 10.585938 174.035156 11.183594 173.675781 11.796875 173.347656 C 12.414062 173.019531 13.042969 172.722656 13.6875 172.457031 C 14.328125 172.1875 14.984375 171.953125 15.652344 171.753906 C 16.320312 171.550781 16.996094 171.382812 17.679688 171.246094 C 18.363281 171.109375 19.050781 171.007812 19.746094 170.9375 C 20.4375 170.871094 21.136719 170.835938 21.832031 170.835938 L 788.167969 170.835938 C 788.863281 170.835938 789.5625 170.871094 790.253906 170.9375 C 790.949219 171.007812 791.636719 171.109375 792.320312 171.246094 C 793.003906 171.382812 793.679688 171.550781 794.347656 171.753906 C 795.015625 171.953125 795.671875 172.1875 796.3125 172.457031 C 796.957031 172.722656 797.585938 173.019531 798.203125 173.347656 C 798.816406 173.675781 799.414062 174.035156 799.996094 174.421875 C 800.574219 174.808594 801.132812 175.222656 801.671875 175.664062 C 802.210938 176.105469 802.726562 176.574219 803.21875 177.066406 C 803.714844 177.558594 804.179688 178.074219 804.625 178.613281 C 805.066406 179.152344 805.480469 179.710938 805.867188 180.289062 C 806.253906 180.871094 806.613281 181.464844 806.941406 182.082031 C 807.269531 182.695312 807.566406 183.324219 807.835938 183.96875 C 808.101562 184.613281 808.335938 185.265625 808.539062 185.933594 C 808.742188 186.601562 808.910156 187.277344 809.046875 187.960938 C 809.183594 188.640625 809.285156 189.332031 809.351562 190.023438 C 809.421875 190.71875 809.453125 191.414062 809.453125 192.109375 C 809.453125 192.804688 809.421875 193.5 809.351562 194.195312 C 809.285156 194.886719 809.183594 195.574219 809.046875 196.257812 C 808.910156 196.941406 808.742188 197.617188 808.539062 198.285156 C 808.335938 198.949219 808.101562 199.605469 807.835938 200.25 C 807.566406 200.894531 807.269531 201.523438 806.941406 202.136719 C 806.613281 202.75 806.253906 203.347656 805.867188 203.925781 C 805.480469 204.507812 805.066406 205.066406 804.625 205.605469 C 804.179688 206.144531 803.714844 206.660156 803.21875 207.152344 C 802.726562 207.644531 802.210938 208.109375 801.671875 208.554688 C 801.132812 208.996094 800.574219 209.410156 799.996094 209.796875 C 799.414062 210.183594 798.816406 210.542969 798.203125 210.871094 C 797.585938 211.199219 796.957031 211.496094 796.3125 211.761719 C 795.671875 212.027344 795.015625 212.261719 794.347656 212.464844 C 793.679688 212.667969 793.003906 212.835938 792.320312 212.972656 C 791.636719 213.109375 790.949219 213.210938 790.253906 213.28125 C 789.5625 213.347656 788.863281 213.382812 788.167969 213.382812 Z M 788.167969 213.382812 " fill-opacity="1" fill-rule="nonzero"/></g></svg>