<svg xmlns="http://www.w3.org/2000/svg" xmlns:xlink="http://www.w3.org/1999/xlink" width="1080" zoomAndPan="magnify" viewBox="0 0 810 809.999993" height="1080" preserveAspectRatio="xMidYMid meet" version="1.0"><path fill="#000000" d="M 405.515625 0.300781 C 182.078125 0.300781 0.289062 182.070312 0.289062 405.515625 C 0.289062 628.953125 182.078125 810.734375 405.515625 810.734375 C 628.972656 810.734375 810.734375 628.953125 810.734375 405.515625 C 810.734375 182.070312 628.972656 0.300781 405.515625 0.300781 M 405.515625 745.683594 C 217.957031 745.683594 65.367188 593.085938 65.367188 405.515625 C 65.367188 217.945312 217.957031 65.355469 405.515625 65.355469 C 593.085938 65.355469 745.664062 217.945312 745.664062 405.515625 C 745.664062 593.085938 593.085938 745.683594 405.515625 745.683594 M 399.078125 536.128906 C 384.632812 536.128906 372.3125 541.234375 362.117188 551.410156 C 351.933594 561.601562 346.835938 573.921875 346.835938 588.347656 C 346.835938 602.792969 351.933594 615.113281 362.117188 625.308594 C 372.3125 635.492188 384.632812 640.589844 399.078125 640.589844 C 413.511719 640.589844 425.84375 635.492188 436.046875 625.308594 C 446.222656 615.113281 451.320312 602.792969 451.320312 588.347656 C 451.320312 573.921875 446.222656 561.601562 436.046875 551.410156 C 425.855469 541.234375 413.523438 536.128906 399.078125 536.128906 M 513.621094 200.269531 C 498.308594 190.109375 480.996094 182.605469 461.691406 177.726562 C 442.382812 172.855469 422.550781 170.417969 402.214844 170.417969 C 382.734375 170.417969 364.085938 173.585938 346.277344 179.953125 C 328.476562 186.300781 312.679688 194.875 298.914062 205.65625 C 285.128906 216.460938 274.109375 228.945312 265.855469 243.144531 C 257.601562 257.320312 253.464844 272.253906 253.464844 287.9375 C 253.464844 300.648438 257.589844 310.285156 265.855469 316.871094 C 274.109375 323.433594 283.769531 326.722656 294.789062 326.722656 C 304.953125 326.722656 312.90625 324.597656 318.625 320.359375 C 324.359375 316.128906 329.117188 310.945312 332.9375 304.785156 C 336.753906 298.636719 340.128906 291.980469 343.097656 284.769531 C 346.070312 277.566406 349.972656 270.878906 354.863281 264.742188 C 359.753906 258.601562 366.089844 253.421875 373.953125 249.171875 C 381.785156 244.929688 392.472656 242.8125 406.042969 242.8125 C 425.121094 242.8125 440.050781 247.582031 450.855469 257.125 C 461.660156 266.660156 467.074219 280.125 467.074219 297.480469 C 467.074219 308.089844 464.332031 317.417969 458.894531 325.453125 C 453.433594 333.511719 446.582031 341.253906 438.320312 348.671875 C 430.054688 356.082031 421.167969 363.28125 411.636719 370.289062 C 402.101562 377.273438 393.183594 384.796875 384.921875 392.855469 C 376.664062 400.902344 369.78125 409.707031 364.285156 419.25 C 358.761719 428.785156 356.027344 439.90625 356.027344 452.621094 C 356.027344 462.773438 359.402344 472.421875 366.191406 481.53125 C 372.960938 490.664062 383.136719 495.214844 396.714844 495.214844 C 407.300781 495.214844 415.257812 493.5 420.558594 490.117188 C 425.84375 486.742188 429.972656 482.398438 432.953125 477.085938 C 435.894531 471.792969 438.347656 465.960938 440.246094 459.59375 C 442.167969 453.257812 445.027344 447.316406 448.832031 441.796875 C 452.21875 436.707031 457.417969 431.632812 464.433594 426.546875 C 471.429688 421.457031 479.167969 415.835938 487.652344 409.695312 C 496.132812 403.554688 504.945312 396.765625 514.078125 389.347656 C 523.1875 381.949219 531.472656 373.777344 538.882812 364.882812 C 546.300781 355.964844 552.347656 346.019531 557.023438 335 C 561.675781 323.980469 564.039062 311.484375 564.039062 297.480469 C 564.039062 275.019531 559.46875 255.742188 550.316406 239.667969 C 541.152344 223.558594 528.914062 210.433594 513.621094 200.269531 " fill-opacity="1" fill-rule="nonzero"/></svg>