<svg xmlns="http://www.w3.org/2000/svg" xmlns:xlink="http://www.w3.org/1999/xlink" width="1080" zoomAndPan="magnify" viewBox="0 0 810 809.999993" height="1080" preserveAspectRatio="xMidYMid meet" version="1.0"><defs><clipPath id="be447a7358"><path d="M 0 324.328125 L 810 324.328125 L 810 485.046875 L 0 485.046875 Z M 0 324.328125 " clip-rule="nonzero"/></clipPath><clipPath id="17e02f0bf0"><path d="M 38.25 324.953125 L 771.75 324.953125 C 781.894531 324.953125 791.625 328.980469 798.796875 336.15625 C 805.96875 343.328125 810 353.058594 810 363.203125 L 810 446.796875 C 810 456.941406 805.96875 466.671875 798.796875 473.84375 C 791.625 481.019531 781.894531 485.046875 771.75 485.046875 L 38.25 485.046875 C 28.105469 485.046875 18.375 481.019531 11.203125 473.84375 C 4.03125 466.671875 0 456.941406 0 446.796875 L 0 363.203125 C 0 353.058594 4.03125 343.328125 11.203125 336.15625 C 18.375 328.980469 28.105469 324.953125 38.25 324.953125 Z M 38.25 324.953125 " clip-rule="nonzero"/></clipPath><clipPath id="55c56b592e"><path d="M 0 0.71875 L 810 0.71875 L 810 161.046875 L 0 161.046875 Z M 0 0.71875 " clip-rule="nonzero"/></clipPath><clipPath id="1e7bbb94bc"><path d="M 38.25 0.953125 L 771.75 0.953125 C 781.894531 0.953125 791.625 4.980469 798.796875 12.15625 C 805.96875 19.328125 810 29.058594 810 39.203125 L 810 122.796875 C 810 132.941406 805.96875 142.671875 798.796875 149.84375 C 791.625 157.019531 781.894531 161.046875 771.75 161.046875 L 38.25 161.046875 C 28.105469 161.046875 18.375 157.019531 11.203125 149.84375 C 4.03125 142.671875 0 132.941406 0 122.796875 L 0 39.203125 C 0 29.058594 4.03125 19.328125 11.203125 12.15625 C 18.375 4.980469 28.105469 0.953125 38.25 0.953125 Z M 38.25 0.953125 " clip-rule="nonzero"/></clipPath><clipPath id="cb2ad1fbcb"><rect x="0" width="810" y="0" height="162"/></clipPath></defs><g clip-path="url(#be447a7358)"><g clip-path="url(#17e02f0bf0)"><g transform="matrix(1, 0, 0, 1, 0, 324)"><g clip-path="url(#cb2ad1fbcb)"><g clip-path="url(#55c56b592e)"><g clip-path="url(#1e7bbb94bc)"><path fill="#000000" d="M 0 0.953125 L 809.859375 0.953125 L 809.859375 161.046875 L 0 161.046875 Z M 0 0.953125 " fill-opacity="1" fill-rule="nonzero"/></g></g></g></g></g></g></svg>