<svg xmlns="http://www.w3.org/2000/svg" xmlns:xlink="http://www.w3.org/1999/xlink" width="1080" zoomAndPan="magnify" viewBox="0 0 810 809.999993" height="1080" preserveAspectRatio="xMidYMid meet" version="1.0"><defs><clipPath id="88eec90640"><path d="M 0 324.328125 L 810 324.328125 L 810 485.046875 L 0 485.046875 Z M 0 324.328125 " clip-rule="nonzero"/></clipPath><clipPath id="832951bd86"><path d="M 38.25 324.953125 L 771.75 324.953125 C 781.894531 324.953125 791.625 328.980469 798.796875 336.15625 C 805.96875 343.328125 810 353.058594 810 363.203125 L 810 446.796875 C 810 456.941406 805.96875 466.671875 798.796875 473.84375 C 791.625 481.019531 781.894531 485.046875 771.75 485.046875 L 38.25 485.046875 C 28.105469 485.046875 18.375 481.019531 11.203125 473.84375 C 4.03125 466.671875 0 456.941406 0 446.796875 L 0 363.203125 C 0 353.058594 4.03125 343.328125 11.203125 336.15625 C 18.375 328.980469 28.105469 324.953125 38.25 324.953125 Z M 38.25 324.953125 " clip-rule="nonzero"/></clipPath><clipPath id="e9b9361679"><path d="M 0 0.71875 L 810 0.71875 L 810 161.046875 L 0 161.046875 Z M 0 0.71875 " clip-rule="nonzero"/></clipPath><clipPath id="1143780d65"><path d="M 38.25 0.953125 L 771.75 0.953125 C 781.894531 0.953125 791.625 4.980469 798.796875 12.15625 C 805.96875 19.328125 810 29.058594 810 39.203125 L 810 122.796875 C 810 132.941406 805.96875 142.671875 798.796875 149.84375 C 791.625 157.019531 781.894531 161.046875 771.75 161.046875 L 38.25 161.046875 C 28.105469 161.046875 18.375 157.019531 11.203125 149.84375 C 4.03125 142.671875 0 132.941406 0 122.796875 L 0 39.203125 C 0 29.058594 4.03125 19.328125 11.203125 12.15625 C 18.375 4.980469 28.105469 0.953125 38.25 0.953125 Z M 38.25 0.953125 " clip-rule="nonzero"/></clipPath><clipPath id="6e72f410ea"><rect x="0" width="810" y="0" height="162"/></clipPath><clipPath id="900100c5bf"><path d="M 324.328125 0 L 485.050781 0 L 485.050781 810 L 324.328125 810 Z M 324.328125 0 " clip-rule="nonzero"/></clipPath><clipPath id="ce76d090e2"><path d="M 324.953125 771.746094 L 324.953125 38.246094 C 324.953125 28.101562 328.984375 18.375 336.160156 11.199219 C 343.332031 4.027344 353.058594 -0.00390625 363.203125 -0.00390625 L 446.800781 -0.00390625 C 456.945312 -0.00390625 466.675781 4.027344 473.847656 11.199219 C 481.019531 18.375 485.050781 28.101562 485.050781 38.246094 L 485.050781 771.746094 C 485.050781 781.890625 481.019531 791.621094 473.847656 798.792969 C 466.675781 805.96875 456.945312 809.996094 446.800781 809.996094 L 363.203125 809.996094 C 353.058594 809.996094 343.332031 805.96875 336.160156 798.792969 C 328.984375 791.621094 324.953125 781.890625 324.953125 771.746094 Z M 324.953125 771.746094 " clip-rule="nonzero"/></clipPath><clipPath id="71f92fa972"><path d="M 0.71875 0 L 161.050781 0 L 161.050781 810 L 0.71875 810 Z M 0.71875 0 " clip-rule="nonzero"/></clipPath><clipPath id="1f4b70ab0c"><path d="M 0.953125 771.746094 L 0.953125 38.246094 C 0.953125 28.101562 4.984375 18.375 12.160156 11.199219 C 19.332031 4.027344 29.058594 -0.00390625 39.203125 -0.00390625 L 122.800781 -0.00390625 C 132.945312 -0.00390625 142.675781 4.027344 149.847656 11.199219 C 157.019531 18.375 161.050781 28.101562 161.050781 38.246094 L 161.050781 771.746094 C 161.050781 781.890625 157.019531 791.621094 149.847656 798.792969 C 142.675781 805.96875 132.945312 809.996094 122.800781 809.996094 L 39.203125 809.996094 C 29.058594 809.996094 19.332031 805.96875 12.160156 798.792969 C 4.984375 791.621094 0.953125 781.890625 0.953125 771.746094 Z M 0.953125 771.746094 " clip-rule="nonzero"/></clipPath><clipPath id="d25081bb13"><rect x="0" width="162" y="0" height="810"/></clipPath></defs><g clip-path="url(#88eec90640)"><g clip-path="url(#832951bd86)"><g transform="matrix(1, 0, 0, 1, 0, 324)"><g clip-path="url(#6e72f410ea)"><g clip-path="url(#e9b9361679)"><g clip-path="url(#1143780d65)"><path fill="#000000" d="M 0 0.953125 L 809.859375 0.953125 L 809.859375 161.046875 L 0 161.046875 Z M 0 0.953125 " fill-opacity="1" fill-rule="nonzero"/></g></g></g></g></g></g><g clip-path="url(#900100c5bf)"><g clip-path="url(#ce76d090e2)"><g transform="matrix(1, 0, 0, 1, 324, 0.000000000000039746)"><g clip-path="url(#d25081bb13)"><g clip-path="url(#71f92fa972)"><g clip-path="url(#1f4b70ab0c)"><path fill="#000000" d="M 0.953125 809.996094 L 0.953125 0.140625 L 161.050781 0.140625 L 161.050781 809.996094 Z M 0.953125 809.996094 " fill-opacity="1" fill-rule="nonzero"/></g></g></g></g></g></g></svg>