<svg xmlns="http://www.w3.org/2000/svg" xmlns:xlink="http://www.w3.org/1999/xlink" width="1080" zoomAndPan="magnify" viewBox="0 0 810 809.999993" height="1080" preserveAspectRatio="xMidYMid meet" version="1.0"><defs><clipPath id="e810f05bf8"><path d="M 13 1.007812 L 793 1.007812 L 793 810 L 13 810 Z M 13 1.007812 " clip-rule="nonzero"/></clipPath></defs><g clip-path="url(#e810f05bf8)"><path fill="#000000" d="M 780.972656 745.351562 L 587.207031 559.085938 C 644.761719 497.476562 676.296875 417.570312 676.296875 332.808594 C 676.296875 248.042969 641.761719 160.878906 579.171875 98.191406 C 516.519531 35.5 433.246094 1.007812 344.695312 1.007812 C 256.144531 1.007812 172.871094 35.5 110.222656 98.191406 C 47.570312 160.878906 13.097656 244.203125 13.097656 332.808594 C 13.097656 421.410156 47.570312 504.734375 110.222656 567.421875 C 172.871094 630.113281 256.144531 664.605469 344.695312 664.605469 C 411.484375 664.605469 475.214844 644.988281 529.410156 608.457031 L 728.574219 799.878906 C 735.648438 806.660156 744.941406 810.4375 754.773438 810.4375 C 764.605469 810.4375 774.976562 806.179688 782.050781 798.800781 C 796.5 783.742188 796.019531 759.746094 780.972656 745.289062 Z M 490.382812 550.625 C 448.714844 578.582031 398.652344 594.898438 344.695312 594.898438 C 200.03125 594.898438 82.824219 477.558594 82.824219 332.867188 C 82.824219 188.171875 200.03125 70.773438 344.695312 70.773438 C 489.363281 70.773438 606.570312 188.113281 606.570312 332.808594 C 606.570312 404.554688 577.734375 469.582031 531.03125 516.914062 C 518.679688 529.449219 505.011719 540.789062 490.320312 550.625 Z M 490.382812 550.625 " fill-opacity="1" fill-rule="nonzero"/></g></svg>