<svg xmlns="http://www.w3.org/2000/svg" xmlns:xlink="http://www.w3.org/1999/xlink" width="1080" zoomAndPan="magnify" viewBox="0 0 810 809.999993" height="1080" preserveAspectRatio="xMidYMid meet" version="1.0"><defs><clipPath id="93936a4584"><path d="M 45.5625 296 L 559 296 L 559 810 L 45.5625 810 Z M 45.5625 296 " clip-rule="nonzero"/></clipPath><clipPath id="828d4fa163"><path d="M 494 229 L 764.8125 229 L 764.8125 500 L 494 500 Z M 494 229 " clip-rule="nonzero"/></clipPath></defs><g clip-path="url(#93936a4584)"><path fill="#000000" d="M 477.210938 447.726562 L 505.703125 393.140625 L 461.890625 349.359375 L 407.128906 377.917969 C 390.101562 367.714844 371.464844 359.921875 351.683594 355.003906 L 333.15625 296.074219 L 271.210938 296.074219 L 252.679688 355.003906 C 232.90625 359.921875 214.265625 367.722656 197.246094 377.917969 L 142.46875 349.359375 L 98.671875 393.140625 L 127.164062 447.71875 C 116.832031 464.804688 108.945312 483.519531 103.964844 503.394531 L 45.34375 521.800781 L 45.34375 583.714844 L 103.730469 602.0625 C 108.65625 622.125 116.542969 641.023438 126.914062 658.265625 L 98.664062 712.382812 L 142.46875 756.164062 L 196.453125 728.011719 C 213.773438 738.496094 232.769531 746.46875 252.953125 751.457031 L 271.195312 809.464844 L 333.140625 809.464844 L 351.382812 751.457031 C 371.566406 746.46875 390.5625 738.496094 407.882812 728.011719 L 461.867188 756.164062 L 505.679688 712.382812 L 477.429688 658.265625 C 487.800781 641.023438 495.6875 622.125 500.605469 602.0625 L 558.992188 583.714844 L 558.992188 521.800781 L 500.378906 503.394531 C 495.429688 483.527344 487.542969 464.8125 477.210938 447.726562 Z M 302.191406 688.644531 C 227.34375 688.644531 166.679688 628.003906 166.679688 553.195312 C 166.679688 478.386719 227.34375 417.75 302.191406 417.75 C 377.027344 417.75 437.699219 478.386719 437.699219 553.195312 C 437.699219 628.003906 377.027344 688.644531 302.191406 688.644531 Z M 302.191406 688.644531 " fill-opacity="1" fill-rule="nonzero"/></g><path fill="#000000" d="M 291.933594 208.761719 L 265.511719 238.828125 L 286.589844 273.527344 L 325.367188 263.992188 C 334.757812 273.363281 345.625 281.394531 357.699219 287.710938 L 360.289062 327.484375 L 399.738281 337.117188 L 420.386719 303.015625 C 434.019531 302.976562 447.355469 300.851562 460.019531 296.875 L 490.019531 323.199219 L 524.742188 302.132812 L 515.171875 263.277344 C 524.457031 253.90625 532.417969 243.097656 538.683594 231.089844 L 578.726562 228.488281 L 588.367188 189.058594 L 553.914062 168.214844 C 553.824219 154.78125 551.722656 141.632812 547.792969 129.148438 L 574.441406 98.816406 L 553.363281 64.117188 L 514.035156 73.789062 C 504.78125 64.648438 494.125 56.78125 482.296875 50.570312 L 479.671875 10.15625 L 440.214844 0.523438 L 419.234375 35.175781 C 405.875 35.234375 392.796875 37.296875 380.363281 41.148438 L 349.933594 14.4375 L 315.210938 35.515625 L 324.871094 74.703125 C 315.625 83.972656 307.691406 94.660156 301.429688 106.550781 L 261.230469 109.160156 L 251.59375 148.597656 L 285.925781 169.355469 C 285.933594 182.910156 288.007812 196.164062 291.933594 208.761719 Z M 333.601562 148.03125 C 345.246094 100.394531 393.324219 71.210938 440.992188 82.847656 C 488.652344 94.488281 517.851562 142.546875 506.207031 190.183594 C 494.5625 237.816406 446.484375 267.003906 398.816406 255.363281 C 351.15625 243.726562 321.949219 195.675781 333.601562 148.03125 Z M 333.601562 148.03125 " fill-opacity="1" fill-rule="nonzero"/><g clip-path="url(#828d4fa163)"><path fill="#000000" d="M 735.152344 353.609375 C 734.058594 343.3125 731.46875 333.105469 727.308594 323.328125 L 746.066406 297.109375 L 726.617188 271.316406 L 696.238281 282.097656 C 687.980469 275.398438 678.878906 270.089844 669.289062 266.203125 L 664.003906 234.429688 L 632.011719 229.929688 L 618.207031 258.925781 C 607.832031 259.988281 597.558594 262.566406 587.710938 266.738281 L 561.632812 248.101562 L 535.820312 267.53125 L 546.5 297.605469 C 539.6875 305.949219 534.28125 315.167969 530.34375 324.898438 L 498.917969 330.117188 L 494.410156 362.101562 L 523.082031 375.746094 C 524.160156 386.253906 526.796875 396.664062 531.042969 406.636719 L 512.59375 432.433594 L 532.035156 458.234375 L 561.941406 447.628906 C 570.351562 454.46875 579.648438 459.878906 589.453125 463.808594 L 594.652344 495.128906 L 626.652344 499.628906 L 640.351562 470.882812 C 650.78125 469.789062 661.144531 467.140625 671.046875 462.902344 L 697.015625 481.464844 L 722.828125 462.027344 L 712.109375 431.847656 C 718.835938 423.527344 724.164062 414.375 728.042969 404.707031 L 759.734375 399.449219 L 764.238281 367.464844 Z M 671.679688 421.347656 C 640.488281 444.820312 596.175781 438.582031 572.683594 407.414062 C 549.1875 376.246094 555.4375 331.949219 586.621094 308.476562 C 617.816406 285 662.132812 291.230469 685.621094 322.410156 C 709.097656 353.570312 702.855469 397.863281 671.679688 421.347656 Z M 671.679688 421.347656 " fill-opacity="1" fill-rule="nonzero"/></g></svg>